<svg xmlns="http://www.w3.org/2000/svg" xml:space="preserve" width="2000" height="508" viewBox="0 0 2000 508" data-version="1" data-id="lg_2t7zlHLbCcGX3PRiBK"><g id="outer-wrapper" data-padding="20" transform="matrix(1,0,0,1,0,0)"><g id="inner-wrapper" transform="matrix(0.96415770609319,0,0,0.96415770609319,10,9.10394265232975)"><path fill="#0074d9" d="M776.8471293662988 348.4027500000001A29.145 29.145 0 1 0 776.8471293662988 406.69375A29.145 29.145 0 1 0 776.8471293662988 348.40375000000006M776.8471293662988 322.1147500000001A5.715 5.715 0 1 0 776.8471293662988 333.54475A5.715 5.715 0 1 0 776.8471293662988 322.1147500000001M826.5651293662988 272.39575A5.715 5.715 0 1 0 826.5651293662988 283.8257500000001A5.715 5.715 0 1 0 826.5651293662988 272.39575M826.5651293662988 371.83375A5.715 5.715 0 1 0 826.5651293662988 383.26374999999996A5.715 5.715 0 1 0 826.5651293662988 371.83375M826.5651293662988 298.68375000000003A29.145 29.145 0 1 0 826.5651293662988 356.9747500000001A29.145 29.145 0 1 0 826.5651293662988 298.68475M776.8471293662988 248.96575000000004A29.145 29.145 0 1 0 776.8471293662988 307.25575000000003A29.145 29.145 0 1 0 776.8471293662988 248.96575000000004M776.8471293662988 222.67775000000003A5.715 5.715 0 1 0 776.8471293662988 234.10775000000004A5.715 5.715 0 1 0 776.8471293662988 222.67775000000003M826.5651293662988 172.95875000000004A5.715 5.715 0 1 0 826.5651293662988 184.38875000000004A5.715 5.715 0 1 0 826.5651293662988 172.95875000000004M776.8471293662988 149.52775000000005A29.145 29.145 0 1 0 776.8471293662988 207.81875000000005A29.145 29.145 0 1 0 776.8471293662988 149.52875000000003M826.5651293662988 199.24675000000005A29.145 29.145 0 1 0 826.5651293662988 257.5367500000001A29.145 29.145 0 1 0 826.5651293662988 199.24675000000005M876.2841293662988 348.4027500000001A29.145 29.145 0 1 0 876.2841293662988 406.69375A29.145 29.145 0 1 0 876.2841293662988 348.40375000000006M876.2841293662988 322.1147500000001A5.715 5.715 0 1 0 876.2841293662988 333.54475A5.715 5.715 0 1 0 876.2841293662988 322.1147500000001M926.0021293662988 272.39575A5.715 5.715 0 1 0 926.0021293662988 283.8257500000001A5.715 5.715 0 1 0 926.0021293662988 272.39575M926.0021293662988 371.83375A5.715 5.715 0 1 0 926.0021293662988 383.26374999999996A5.715 5.715 0 1 0 926.0021293662988 371.83375M926.0021293662988 298.68375000000003A29.145 29.145 0 1 0 926.0021293662988 356.9747500000001A29.145 29.145 0 1 0 926.0021293662988 298.68475M876.2841293662988 248.96575000000004A29.145 29.145 0 1 0 876.2841293662988 307.25575000000003A29.145 29.145 0 1 0 876.2841293662988 248.96575000000004M876.2841293662988 222.67775000000003A5.715 5.715 0 1 0 876.2841293662988 234.10775000000004A5.715 5.715 0 1 0 876.2841293662988 222.67775000000003M926.0021293662988 172.95875000000004A5.715 5.715 0 1 0 926.0021293662988 184.38875000000004A5.715 5.715 0 1 0 926.0021293662988 172.95875000000004M876.2841293662988 149.52775000000005A29.145 29.145 0 1 0 876.2841293662988 207.81875000000005A29.145 29.145 0 1 0 876.2841293662988 149.52875000000003M975.7211293662988 348.40274999999997A29.145 29.145 0 1 0 975.7211293662988 406.69375A29.145 29.145 0 1 0 975.7211293662988 348.40375000000006M975.7211293662988 322.1147500000001A5.715 5.715 0 1 0 975.7211293662988 333.54475A5.715 5.715 0 1 0 975.7211293662988 322.1147500000001M975.7211293662988 248.96575000000004A29.145 29.145 0 1 0 975.7211293662988 307.25575000000003A29.145 29.145 0 1 0 975.7211293662988 248.96575000000004M975.7211293662988 222.67775000000003A5.715 5.715 0 1 0 975.7211293662988 234.10775000000004A5.715 5.715 0 1 0 975.7211293662988 222.67775000000003M975.7211293662988 149.52775A29.145 29.145 0 1 0 975.7211293662988 207.81875A29.145 29.145 0 1 0 975.7211293662988 149.52874999999997M926.0021293662988 199.24675A29.145 29.145 0 1 0 926.0021293662988 257.53675A29.145 29.145 0 1 0 926.0021293662988 199.24675 "></path><path fill="#0074d9" d="M826.3801293662988 198.75075000000007A29.145 29.145 0 1 0 826.3801293662988 257.0407500000001A29.145 29.145 0 1 0 826.3801293662988 198.75075000000007M826.3801293662988 172.46175000000008A5.715 5.715 0 1 0 826.3801293662988 183.8917500000001A5.715 5.715 0 1 0 826.3801293662988 172.46175000000008M876.0981293662987 122.74375000000006A5.715 5.715 0 1 0 876.0981293662987 134.17375000000007A5.715 5.715 0 1 0 876.0981293662987 122.74375000000006M876.0981293662987 222.18175000000005A5.715 5.715 0 1 0 876.0981293662987 233.61175000000006A5.715 5.715 0 1 0 876.0981293662987 222.18175000000005M876.0981293662987 149.03175000000002A29.145 29.145 0 1 0 876.0981293662987 207.32275A29.145 29.145 0 1 0 876.0981293662987 149.03275M826.3801293662988 99.31275A29.145 29.145 0 1 0 826.3801293662988 157.60375000000002A29.145 29.145 0 1 0 826.3801293662988 99.31375000000003M826.3801293662988 73.02475000000001A5.715 5.715 0 1 0 826.3801293662988 84.45475000000002A5.715 5.715 0 1 0 826.3801293662988 73.02475000000001M876.0981293662987 23.305750000000018A5.715 5.715 0 1 0 876.0981293662987 34.735750000000024A5.715 5.715 0 1 0 876.0981293662987 23.305750000000018M826.3801293662988 -0.12424999999998931A29.145 29.145 0 1 0 826.3801293662988 58.16575A29.145 29.145 0 1 0 826.3801293662988 -0.12424999999998931M876.0981293662987 49.594750000000005A29.145 29.145 0 1 0 876.0981293662987 107.88475A29.145 29.145 0 1 0 876.0981293662987 49.594750000000005M925.8171293662988 198.75075A29.145 29.145 0 1 0 925.8171293662988 257.04075A29.145 29.145 0 1 0 925.8171293662988 198.75075M925.8171293662988 172.46175000000002A5.715 5.715 0 1 0 925.8171293662988 183.89175000000003A5.715 5.715 0 1 0 925.8171293662988 172.46175000000002M975.5361293662987 122.74375A5.715 5.715 0 1 0 975.5361293662987 134.17375A5.715 5.715 0 1 0 975.5361293662987 122.74375M975.5361293662987 222.18175A5.715 5.715 0 1 0 975.5361293662987 233.61175A5.715 5.715 0 1 0 975.5361293662987 222.18175M975.5361293662987 149.03175000000002A29.145 29.145 0 1 0 975.5361293662987 207.32275A29.145 29.145 0 1 0 975.5361293662987 149.03275M925.8171293662988 99.31275A29.145 29.145 0 1 0 925.8171293662988 157.60375000000002A29.145 29.145 0 1 0 925.8171293662988 99.31375000000003M925.8171293662988 73.02475000000001A5.715 5.715 0 1 0 925.8171293662988 84.45475000000002A5.715 5.715 0 1 0 925.8171293662988 73.02475000000001M975.5361293662987 23.305750000000018A5.715 5.715 0 1 0 975.5361293662987 34.735750000000024A5.715 5.715 0 1 0 975.5361293662987 23.305750000000018M925.8171293662988 -0.12424999999998931A29.145 29.145 0 1 0 925.8171293662988 58.16575A29.145 29.145 0 1 0 925.8171293662988 -0.12424999999998931M1025.2551293662987 198.75075A29.145 29.145 0 1 0 1025.2551293662987 257.04075A29.145 29.145 0 1 0 1025.2551293662987 198.75075M1025.2551293662987 172.46175000000002A5.715 5.715 0 1 0 1025.2551293662987 183.89175000000003A5.715 5.715 0 1 0 1025.2551293662987 172.46175000000002M1025.2551293662987 99.31275000000002A29.145 29.145 0 1 0 1025.2551293662987 157.60375000000002A29.145 29.145 0 1 0 1025.2551293662987 99.31375000000003M1025.2551293662987 73.02475000000001A5.715 5.715 0 1 0 1025.2551293662987 84.45475000000002A5.715 5.715 0 1 0 1025.2551293662987 73.02475000000001M1025.2551293662987 -0.12424999999998931A29.145 29.145 0 1 0 1025.2551293662987 58.16575A29.145 29.145 0 1 0 1025.2551293662987 -0.12424999999998931M975.5361293662987 49.594750000000005A29.145 29.145 0 1 0 975.5361293662987 107.88475A29.145 29.145 0 1 0 975.5361293662987 49.594750000000005M975.9221293662988 348.49675A29.145 29.145 0 1 0 975.9221293662988 406.78774999999996A29.145 29.145 0 1 0 975.9221293662988 348.49775M975.9221293662988 322.20875A5.715 5.715 0 1 0 975.9221293662988 333.63874999999996A5.715 5.715 0 1 0 975.9221293662988 322.20875M1025.6411293662986 272.49074999999993A5.715 5.715 0 1 0 1025.6411293662986 283.92075A5.715 5.715 0 1 0 1025.6411293662986 272.49074999999993M1025.6411293662986 371.92774999999995A5.715 5.715 0 1 0 1025.6411293662986 383.3577499999999A5.715 5.715 0 1 0 1025.6411293662986 371.92774999999995M1025.6411293662986 298.77874999999995A29.145 29.145 0 1 0 1025.6411293662986 357.06875A29.145 29.145 0 1 0 1025.6411293662986 298.77874999999995M975.9221293662988 249.05974999999998A29.145 29.145 0 1 0 975.9221293662988 307.34975A29.145 29.145 0 1 0 975.9221293662988 249.05974999999998 "></path><path fill="#0074d9" d="M975.9221293662988 222.77175000000003A5.715 5.715 0 1 0 975.9221293662988 234.20175000000003A5.715 5.715 0 1 0 975.9221293662988 222.77175000000003M1025.6411293662986 173.05275000000003A5.715 5.715 0 1 0 1025.6411293662986 184.48275000000004A5.715 5.715 0 1 0 1025.6411293662986 173.05275000000003M975.9221293662988 149.62175000000005A29.145 29.145 0 1 0 975.9221293662988 207.91275000000005A29.145 29.145 0 1 0 975.9221293662988 149.62275000000002M1025.6411293662986 199.34175000000002A29.145 29.145 0 1 0 1025.6411293662986 257.63175A29.145 29.145 0 1 0 1025.6411293662986 199.34175000000002M1075.3601293662987 348.49675A29.145 29.145 0 1 0 1075.3601293662987 406.7877500000001A29.145 29.145 0 1 0 1075.3601293662987 348.4977500000001M1075.3601293662987 322.2087500000001A5.715 5.715 0 1 0 1075.3601293662987 333.6387500000001A5.715 5.715 0 1 0 1075.3601293662987 322.2087500000001M1125.0781293662988 272.49075000000005A5.715 5.715 0 1 0 1125.0781293662988 283.9207500000001A5.715 5.715 0 1 0 1125.0781293662988 272.49075000000005M1125.0781293662988 371.92775000000006A5.715 5.715 0 1 0 1125.0781293662988 383.35775A5.715 5.715 0 1 0 1125.0781293662988 371.92775000000006M1125.0781293662988 298.77875000000006A29.145 29.145 0 1 0 1125.0781293662988 357.06875000000014A29.145 29.145 0 1 0 1125.0781293662988 298.77875000000006M1075.3601293662987 249.0597500000001A29.145 29.145 0 1 0 1075.3601293662987 307.3497500000001A29.145 29.145 0 1 0 1075.3601293662987 249.0597500000001M1075.3601293662987 222.77175000000008A5.715 5.715 0 1 0 1075.3601293662987 234.2017500000001A5.715 5.715 0 1 0 1075.3601293662987 222.77175000000008M1125.0781293662988 173.0527500000001A5.715 5.715 0 1 0 1125.0781293662988 184.4827500000001A5.715 5.715 0 1 0 1125.0781293662988 173.0527500000001M1075.3601293662987 149.6217500000001A29.145 29.145 0 1 0 1075.3601293662987 207.9127500000001A29.145 29.145 0 1 0 1075.3601293662987 149.62275000000008M1174.7971293662986 348.49675A29.145 29.145 0 1 0 1174.7971293662986 406.7877500000001A29.145 29.145 0 1 0 1174.7971293662986 348.4977500000001M1174.7971293662986 322.2087500000001A5.715 5.715 0 1 0 1174.7971293662986 333.6387500000001A5.715 5.715 0 1 0 1174.7971293662986 322.2087500000001M1174.7971293662986 249.0597500000001A29.145 29.145 0 1 0 1174.7971293662986 307.3497500000001A29.145 29.145 0 1 0 1174.7971293662986 249.0597500000001M1174.7971293662986 222.77175000000008A5.715 5.715 0 1 0 1174.7971293662986 234.2017500000001A5.715 5.715 0 1 0 1174.7971293662986 222.77175000000008M1174.7971293662986 149.62175000000005A29.145 29.145 0 1 0 1174.7971293662986 207.91275000000005A29.145 29.145 0 1 0 1174.7971293662986 149.62275000000002M1125.0781293662988 199.34175000000002A29.145 29.145 0 1 0 1125.0781293662988 257.63175A29.145 29.145 0 1 0 1125.0781293662988 199.34175000000002M1076.4601293662986 449.51175A29.306 29.306 0 1 0 1076.4601293662986 508.12375A29.306 29.306 0 1 0 1076.4601293662986 449.51275M1076.4601293662986 423.07975A5.746 5.746 0 1 0 1076.4601293662986 434.57275000000004A5.746 5.746 0 1 0 1076.4601293662986 423.07975 "></path><path fill="#0074d9" d="M1126.452129366299 373.08775A5.746 5.746 0 1 0 1126.452129366299 384.5807500000001A5.746 5.746 0 1 0 1126.452129366299 373.08775M1126.452129366299 473.07175000000007A5.746 5.746 0 1 0 1126.452129366299 484.5647500000001A5.746 5.746 0 1 0 1126.452129366299 473.07175000000007M1126.452129366299 399.52075A29.306 29.306 0 1 0 1126.452129366299 458.13175A29.306 29.306 0 1 0 1126.452129366299 399.52075M1076.460129366299 349.52875000000006A29.306 29.306 0 1 0 1076.460129366299 408.13975000000005A29.306 29.306 0 1 0 1076.460129366299 349.52875000000006M1076.460129366299 323.09575000000007A5.746 5.746 0 1 0 1076.460129366299 334.5887500000001A5.746 5.746 0 1 0 1076.460129366299 323.09575000000007M1126.452129366299 273.1037500000001A5.746 5.746 0 1 0 1126.452129366299 284.59675000000004A5.746 5.746 0 1 0 1126.452129366299 273.1037500000001M1076.460129366299 249.54475000000005A29.306 29.306 0 1 0 1076.460129366299 308.15575A29.306 29.306 0 1 0 1076.460129366299 249.54475000000005M1126.452129366299 299.5367500000001A29.306 29.306 0 1 0 1126.452129366299 358.1477500000001A29.306 29.306 0 1 0 1126.452129366299 299.5367500000001M1176.444129366299 449.51175A29.306 29.306 0 1 0 1176.444129366299 508.12375A29.306 29.306 0 1 0 1176.444129366299 449.51275M1176.444129366299 423.07975A5.746 5.746 0 1 0 1176.444129366299 434.57275000000004A5.746 5.746 0 1 0 1176.444129366299 423.07975M1226.436129366299 373.08775A5.746 5.746 0 1 0 1226.436129366299 384.5807500000001A5.746 5.746 0 1 0 1226.436129366299 373.08775M1226.436129366299 473.07175000000007A5.746 5.746 0 1 0 1226.436129366299 484.5647500000001A5.746 5.746 0 1 0 1226.436129366299 473.07175000000007M1226.436129366299 399.52075A29.306 29.306 0 1 0 1226.436129366299 458.13175A29.306 29.306 0 1 0 1226.436129366299 399.52075M1176.444129366299 349.52875000000006A29.306 29.306 0 1 0 1176.444129366299 408.13975000000005A29.306 29.306 0 1 0 1176.444129366299 349.52875000000006M1176.444129366299 323.09575000000007A5.746 5.746 0 1 0 1176.444129366299 334.5887500000001A5.746 5.746 0 1 0 1176.444129366299 323.09575000000007M1226.436129366299 273.1037500000001A5.746 5.746 0 1 0 1226.436129366299 284.59675000000004A5.746 5.746 0 1 0 1226.436129366299 273.1037500000001M1176.444129366299 249.54475000000005A29.306 29.306 0 1 0 1176.444129366299 308.15575A29.306 29.306 0 1 0 1176.444129366299 249.54475000000005M1276.4271293662991 449.51175A29.306 29.306 0 1 0 1276.4271293662991 508.12375A29.306 29.306 0 1 0 1276.4271293662991 449.51275M1276.4271293662991 423.07975A5.746 5.746 0 1 0 1276.4271293662991 434.57275000000004A5.746 5.746 0 1 0 1276.4271293662991 423.07975M1276.4271293662991 349.52875000000006A29.306 29.306 0 1 0 1276.4271293662991 408.13975000000005A29.306 29.306 0 1 0 1276.4271293662991 349.52875000000006M1276.4271293662991 323.09575000000007A5.746 5.746 0 1 0 1276.4271293662991 334.5887500000001A5.746 5.746 0 1 0 1276.4271293662991 323.09575000000007M1276.4271293662991 249.5447500000001A29.306 29.306 0 1 0 1276.4271293662991 308.1557500000001A29.306 29.306 0 1 0 1276.4271293662991 249.5447500000001M1226.436129366299 299.5367500000001A29.306 29.306 0 1 0 1226.436129366299 358.1477500000001A29.306 29.306 0 1 0 1226.436129366299 299.5367500000001 "></path><g transform="translate(400.5 400.5)"><filter id="a" width="140%" height="140%" x="-20%" y="-20%"><feGaussianBlur in="SourceAlpha"></feGaussianBlur><feOffset result="oBlur"></feOffset><feFlood flood-color="#f75cff" flood-opacity="1"></feFlood><feComposite in2="oBlur" operator="in"></feComposite><feMerge><feMergeNode></feMergeNode><feMergeNode in="SourceGraphic"></feMergeNode></feMerge></filter><g filter="url(#a)"><rect width="264.033" height="261.03" x="495.96012936629876" y="-275.26324999999997" fill="none" rx="0" ry="0"></rect><path fill="#fff" d="M754.9171293662987 -252.39825V-214.51825H743.3671293662987V-110.56824999999998H754.9171293662987V-72.67824999999999H667.6071293662988V-110.56824999999998H678.6871293662988V-191.41824999999997L639.4171293662987 -72.67824999999999H605.2371293662987L564.8071293662988 -190.25824999999998V-110.56824999999998H575.8971293662987V-72.67824999999999H500.12712936629873V-110.56824999999998H511.67712936629874V-214.51824999999997H500.12712936629873V-252.39825H605.9271293662987L629.9471293662988 -180.32824999999997L653.0471293662988 -252.39824999999996Z "></path></g></g></g><rect width="558" height="508" x="721" y="0" id="space-saver" fill="transparent" stroke="transparent"></rect></g></svg>